<?xml version="1.0" encoding="UTF-8" standalone="no" ?>
<!DOCTYPE svg PUBLIC "-//W3C//DTD SVG 1.1//EN" "http://www.w3.org/Graphics/SVG/1.1/DTD/svg11.dtd">
<svg xmlns="http://www.w3.org/2000/svg" xmlns:xlink="http://www.w3.org/1999/xlink" version="1.1" width="1080" height="1080" viewBox="0 0 1080 1080" xml:space="preserve">
<desc>Created with Fabric.js 5.2.4</desc>
<defs>
</defs>
<g transform="matrix(1 0 0 1 540 540)" id="0571fed8-3ee9-4503-a53a-d96596db23f9"  >
<rect style="stroke: none; stroke-width: 1; stroke-dasharray: none; stroke-linecap: butt; stroke-dashoffset: 0; stroke-linejoin: miter; stroke-miterlimit: 4; fill: rgb(255,255,255); fill-rule: nonzero; opacity: 1; visibility: hidden;" vector-effect="non-scaling-stroke"  x="-540" y="-540" rx="0" ry="0" width="1080" height="1080" />
</g>
<g transform="matrix(1 0 0 1 540 540)" id="a881f750-7aa2-4beb-93d4-ee2b46defc8a"  >
</g>
<g transform="matrix(1 0 0 1 540 540)" id="5a672f89-ce8b-4694-b26d-7fe3a4b0148c"  >
<path style="stroke: rgb(0,0,0); stroke-width: 0; stroke-dasharray: none; stroke-linecap: butt; stroke-dashoffset: 0; stroke-linejoin: miter; stroke-miterlimit: 4; fill: rgb(3,113,49); fill-rule: nonzero; opacity: 1;" vector-effect="non-scaling-stroke"  transform=" translate(-12, -12)" d="M 12 0.5 C 5.7 0.5 0.5 5.7 0.5 12 C 0.5 18.3 5.7 23.5 12 23.5 C 18.3 23.5 23.5 18.3 23.5 12 C 23.5 5.7 18.3 0.5 12 0.5 z M 17 16.4 C 16.9 16.599999999999998 16.7 16.599999999999998 16.6 16.599999999999998 C 16.5 16.599999999999998 16.400000000000002 16.599999999999998 16.3 16.499999999999996 C 13.9 14.999999999999996 10.700000000000001 14.699999999999996 7 15.499999999999996 C 6.7 15.599999999999996 6.5 15.399999999999997 6.4 15.099999999999996 C 6.300000000000001 14.799999999999995 6.5 14.599999999999996 6.800000000000001 14.499999999999996 C 10.8 13.599999999999996 14.200000000000001 13.999999999999996 16.9 15.599999999999996 C 17.1 15.8 17.1 16.1 17 16.4 z M 18.1 13.4 C 18 13.6 17.8 13.6 17.700000000000003 13.6 C 17.6 13.6 17.500000000000004 13.6 17.400000000000002 13.5 C 14.500000000000002 11.7 10.200000000000003 11.2 6.8000000000000025 12.3 C 6.500000000000003 12.4 6.3000000000000025 12.200000000000001 6.200000000000003 12 C 6.100000000000003 11.7 6.3000000000000025 11.5 6.500000000000003 11.4 C 10.100000000000003 10.3 14.700000000000003 10.8 17.900000000000002 12.700000000000001 C 18.2 12.9 18.2 13.2 18.1 13.4 z M 19.4 10 C 19.299999999999997 10.2 19.099999999999998 10.2 19 10.2 C 18.9 10.2 18.8 10.2 18.8 10.1 C 15.3 8.2 9.6 8 6.3 9 C 6.1 9.1 5.8 8.9 5.7 8.7 C 5.6 8.4 5.8 8.1 6 8 C 9.5 7 15.5 7.2 19.2 9.4 C 19.4 9.5 19.5 9.8 19.4 10 z" stroke-linecap="round" />
</g>
</svg>