<?xml version="1.0" encoding="UTF-8" standalone="no" ?>
<!DOCTYPE svg PUBLIC "-//W3C//DTD SVG 1.1//EN" "http://www.w3.org/Graphics/SVG/1.1/DTD/svg11.dtd">
<svg xmlns="http://www.w3.org/2000/svg" xmlns:xlink="http://www.w3.org/1999/xlink" version="1.1" width="1080" height="1080" viewBox="0 0 1080 1080" xml:space="preserve">
<desc>Created with Fabric.js 5.2.4</desc>
<defs>
</defs>
<g transform="matrix(1 0 0 1 540 540)" id="22bbf6a6-4c1d-4632-bc43-2a6e4449c281"  >
<rect style="stroke: none; stroke-width: 1; stroke-dasharray: none; stroke-linecap: butt; stroke-dashoffset: 0; stroke-linejoin: miter; stroke-miterlimit: 4; fill: rgb(255,255,255); fill-rule: nonzero; opacity: 1; visibility: hidden;" vector-effect="non-scaling-stroke"  x="-540" y="-540" rx="0" ry="0" width="1080" height="1080" />
</g>
<g transform="matrix(1 0 0 1 540 540)" id="8e06a8fc-82e9-4d7a-b242-1812da55268f"  >
</g>
<g transform="matrix(-1 0 0 -1 540 540)" id="9af08da1-b4da-4fb1-97d9-ce5876ab0431"  >
<path style="stroke: rgb(0,0,0); stroke-width: 0; stroke-dasharray: none; stroke-linecap: butt; stroke-dashoffset: 0; stroke-linejoin: miter; stroke-miterlimit: 4; fill: rgb(37,88,6); fill-rule: nonzero; opacity: 1;" vector-effect="non-scaling-stroke"  transform=" translate(-2250.01, -2869.05)" d="M 1810 5103 C 1765 5080 1730 5027 1730 4981 C 1730 4916 1759 4886 1877 4826 C 2022 4753 2122 4689 2224 4605 L 2309 4536 L 2303 4479 C 2296 4406 2303 4379 2341 4336 L 2371 4301 L 2346 4253 C 2298 4157 2305 4055 2366 3965 L 2392 3926 L 2375 3825 C 2349 3671 2285 3430 2271 3430 C 2268 3430 2255 3456 2243 3488 C 2113 3831 2077 3911 2003 4027 C 1896 4198 1715 4386 1545 4507 C 1490 4546 1281 4688 1081 4824 C 705 5078 682 5090 639 5057 C 598 5026 598 5010 629 4788 C 658 4588 659 4571 645 4508 C 622 4395 600 4366 395 4180 C 315 4106 247 4036 244 4023 C 232 3978 250 3951 358 3855 C 479 3746 520 3691 545 3605 C 570 3522 560 3444 506 3271 C 481 3191 460 3116 460 3104 C 460 3091 471 3068 484 3053 L 508 3025 L 697 3019 C 900 3013 941 3004 1009 2953 C 1070 2907 1099 2869 1156 2763 C 1244 2599 1271 2590 1394 2684 C 1479 2748 1498 2759 1565 2776 C 1640 2797 1773 2790 1798 2765 C 1807 2756 1784 2737 1471 2509 L 1198 2310 L 773 2310 L 348 2310 L 319 2281 C 291 2252 290 2249 290 2151 C 290 2095 289 2050 288 2050 C 286 2050 240 2066 186 2085 C 97 2115 84 2118 56 2106 C 5 2085 0 2065 0 1844 C 0 1634 5 1599 45 1545 C 75 1505 94 1497 585 1315 C 1421 1004 1360 1029 1360 1000 C 1360 963 1388 871 1412 830 C 1447 771 1522 700 1580 670 C 1679 620 1702 618 2285 622 L 2825 625 L 2895 658 C 2971 694 3047 761 3084 825 C 3111 871 3140 961 3140 999 C 3140 1029 3068 1000 3835 1285 C 4110 1387 4357 1480 4384 1493 C 4436 1516 4470 1554 4489 1609 C 4503 1651 4504 2028 4490 2065 C 4484 2080 4466 2097 4445 2105 C 4413 2119 4405 2118 4313 2085 C 4259 2066 4214 2050 4213 2050 C 4211 2050 4210 2095 4210 2151 C 4210 2249 4209 2252 4181 2281 L 4152 2310 L 3836 2310 C 3612 2310 3520 2313 3520 2321 C 3520 2327 3528 2360 3537 2394 C 3563 2490 3559 2646 3528 2742 C 3495 2843 3445 2930 3370 3015 C 3268 3130 3246 3192 3230 3400 C 3225 3474 3218 3565 3214 3603 L 3209 3670 L 3237 3670 C 3275 3669 3345 3637 3394 3596 C 3458 3544 3497 3528 3559 3528 C 3676 3528 3752 3592 3790 3719 C 3819 3821 3865 3987 3886 4067 C 3904 4139 3904 4140 3884 4167 C 3873 4182 3774 4259 3664 4338 C 3072 4764 2920 4871 2885 4886 C 2862 4895 2832 4900 2813 4897 C 2787 4892 2766 4900 2700 4940 C 2494 5064 2358 5096 1970 5115 C 1862 5120 1840 5118 1810 5103 z M 2205 4926 C 2340 4918 2543 4845 2639 4771 L 2663 4753 L 2625 4711 C 2586 4668 2548 4644 2499 4630 C 2476 4623 2463 4630 2399 4687 C 2311 4764 2185 4856 2113 4896 C 2052 4929 2047 4940 2093 4935 C 2110 4933 2161 4929 2205 4926 z M 1130 4577 C 1457 4355 1548 4289 1599 4236 C 1629 4205 1631 4200 1614 4200 C 1604 4200 1375 4180 1105 4155 C 836 4130 609 4110 601 4110 C 594 4110 622 4146 664 4191 C 746 4278 797 4370 820 4469 C 832 4521 829 4677 814 4759 C 809 4786 810 4791 821 4785 C 829 4780 968 4687 1130 4577 z M 3001 4598 C 3080 4540 3219 4440 3310 4375 C 3470 4260 3641 4137 3688 4102 L 3711 4085 L 3692 4020 C 3681 3984 3657 3902 3640 3837 C 3613 3739 3603 3716 3584 3708 C 3564 3699 3554 3701 3523 3724 C 3502 3738 3469 3762 3449 3776 C 3389 3818 3284 3850 3204 3850 C 3119 3850 3046 3830 2963 3784 C 2896 3747 2863 3742 2822 3764 C 2807 3772 2728 3846 2645 3929 C 2495 4080 2495 4080 2495 4126 C 2495 4167 2499 4176 2531 4204 C 2605 4268 2607 4299 2540 4380 C 2507 4419 2494 4442 2502 4444 C 2509 4447 2533 4454 2555 4461 C 2664 4494 2776 4584 2815 4670 C 2825 4692 2839 4709 2845 4706 C 2852 4704 2922 4655 3001 4598 z M 1509 4013 C 1508 4004 729 3368 725 3372 C 723 3374 726 3400 731 3430 C 757 3582 697 3765 581 3889 C 563 3907 551 3925 554 3927 C 559 3932 726 3949 1135 3985 C 1234 3994 1349 4005 1390 4009 C 1495 4021 1510 4021 1509 4013 z M 1863 3918 C 1940 3785 1974 3707 2090 3395 C 2135 3275 2303 2832 2329 2767 C 2344 2729 2397 2707 2439 2721 C 2469 2732 2500 2773 2500 2803 C 2500 2811 2469 2901 2430 3003 L 2360 3188 L 2396 3265 C 2416 3308 2449 3394 2469 3456 L 2506 3570 L 2536 3539 C 2647 3423 2837 3371 2998 3414 C 3026 3422 3050 3427 3050 3425 C 3050 3382 3075 3200 3086 3160 C 3110 3076 3163 2983 3235 2900 C 3270 2859 3310 2805 3324 2779 C 3356 2722 3380 2622 3380 2549 L 3380 2492 L 3268 2485 C 3030 2471 2880 2434 2705 2345 C 2564 2273 2481 2213 2358 2088 L 2250 1980 L 2138 2093 C 2072 2159 1990 2229 1940 2262 C 1855 2318 1697 2400 1674 2400 C 1638 2400 1658 2425 1737 2482 C 1784 2517 1854 2571 1891 2602 L 1959 2660 L 2000 2625 C 2053 2581 2091 2579 2131 2619 C 2180 2668 2172 2702 2097 2776 C 2014 2857 1942 2903 1850 2936 C 1787 2959 1758 2963 1670 2963 C 1601 2963 1548 2958 1515 2947 C 1488 2938 1465 2932 1463 2934 C 1459 2938 1481 3005 1542 3175 C 1572 3258 1648 3468 1711 3642 C 1774 3817 1828 3960 1832 3960 C 1835 3960 1849 3941 1863 3918 z M 1535 3659 C 1331 3092 1277 2945 1273 2940 C 1270 2937 1254 2953 1237 2975 C 1140 3098 1023 3167 866 3194 L 798 3205 L 1166 3505 C 1368 3670 1547 3817 1564 3832 C 1581 3847 1596 3855 1598 3851 C 1599 3846 1571 3760 1535 3659 z M 1325 2129 C 1763 2076 2120 1714 2157 1283 L 2163 1210 L 2053 1210 L 1942 1210 L 1935 1248 C 1916 1354 1824 1473 1725 1519 C 1698 1532 1560 1584 1420 1635 C 828 1851 528 1961 495 1974 L 460 1989 L 460 2058 C 460 2096 463 2130 467 2133 C 478 2144 1228 2141 1325 2129 z M 4038 2063 L 4041 1990 L 4008 1975 C 3990 1967 3788 1892 3560 1810 C 2719 1504 2722 1506 2650 1424 C 2612 1381 2575 1303 2565 1248 L 2558 1210 L 2449 1210 L 2340 1210 L 2340 1249 C 2340 1314 2370 1448 2401 1528 C 2512 1806 2738 2014 3025 2099 C 3139 2133 3215 2138 3635 2136 L 4035 2135 L 4038 2063 z M 296 1854 C 350 1835 438 1803 490 1784 C 542 1764 614 1738 650 1725 C 686 1712 778 1678 855 1650 C 932 1621 1024 1588 1060 1575 C 1096 1562 1181 1531 1250 1505 C 1319 1479 1419 1443 1473 1424 C 1625 1370 1672 1346 1712 1302 C 1740 1271 1750 1250 1755 1213 C 1769 1097 1800 1052 1878 1030 C 1927 1017 2573 1017 2622 1030 C 2700 1052 2731 1097 2745 1213 C 2750 1250 2760 1271 2788 1302 C 2828 1346 2875 1370 3027 1424 C 3081 1443 3181 1479 3250 1505 C 3319 1531 3404 1562 3440 1575 C 3476 1588 3568 1621 3645 1650 C 3722 1678 3814 1712 3850 1725 C 3886 1738 3967 1768 4030 1791 C 4205 1855 4304 1889 4313 1890 C 4317 1890 4320 1838 4320 1775 C 4320 1665 4319 1659 4298 1650 C 4269 1638 3964 1525 3890 1499 C 3860 1488 3801 1466 3760 1450 C 3686 1421 3441 1330 3265 1265 C 3104 1206 3040 1180 3020 1168 C 2990 1149 2960 1080 2960 1029 C 2960 974 2921 891 2879 855 C 2814 801 2789 799 2223 802 C 1708 805 1705 805 1663 827 C 1592 866 1540 952 1540 1033 C 1540 1057 1530 1095 1518 1120 C 1496 1162 1489 1167 1400 1203 C 1348 1224 1280 1249 1250 1260 C 1220 1270 1134 1302 1060 1330 C 986 1359 882 1397 830 1417 C 778 1436 695 1467 645 1485 C 432 1563 223 1641 203 1650 C 181 1659 180 1665 180 1775 C 180 1838 184 1890 188 1890 C 193 1890 241 1874 296 1854 z" stroke-linecap="round" />
</g>
</svg>